<?xml version="1.0" standalone="no"?><svg xmlns="http://www.w3.org/2000/svg" viewBox="0 0 1440 320"><path fill="#1F7A8C" fill-opacity="1" d="M0,256L24,240C48,224,96,192,144,165.3C192,139,240,117,288,96C336,75,384,53,432,74.7C480,96,528,160,576,202.7C624,245,672,267,720,250.7C768,235,816,181,864,160C912,139,960,149,1008,165.3C1056,181,1104,203,1152,218.7C1200,235,1248,245,1296,229.3C1344,213,1392,171,1416,149.3L1440,128L1440,0L1416,0C1392,0,1344,0,1296,0C1248,0,1200,0,1152,0C1104,0,1056,0,1008,0C960,0,912,0,864,0C816,0,768,0,720,0C672,0,624,0,576,0C528,0,480,0,432,0C384,0,336,0,288,0C240,0,192,0,144,0C96,0,48,0,24,0L0,0Z"></path></svg>