<?xml version="1.0" standalone="no"?><svg xmlns="http://www.w3.org/2000/svg" viewBox="0 0 1440 320"><path fill="#1F7A8C" fill-opacity="1" d="M0,256L24,240C48,224,96,192,144,165.3C192,139,240,117,288,96C336,75,384,53,432,74.7C480,96,528,160,576,202.7C624,245,672,267,720,250.7C768,235,816,181,864,160C912,139,960,149,1008,165.3C1056,181,1104,203,1152,218.7C1200,235,1248,245,1296,229.3C1344,213,1392,171,1416,149.3L1440,128L1440,320L1416,320C1392,320,1344,320,1296,320C1248,320,1200,320,1152,320C1104,320,1056,320,1008,320C960,320,912,320,864,320C816,320,768,320,720,320C672,320,624,320,576,320C528,320,480,320,432,320C384,320,336,320,288,320C240,320,192,320,144,320C96,320,48,320,24,320L0,320Z"></path></svg>