<svg height="496pt" viewBox="-47 0 496 496.00007" width="496pt" xmlns="http://www.w3.org/2000/svg"><path d="m45.753906 496h272.511719c22.773437 0 41.5625-15.832031 45.257813-36.589844 21.882812-3.410156 38.476562-21.554687 38.476562-43.398437v-310.652344c.058594-1.984375-.632812-3.917969-1.941406-5.410156-.386719-.550781-.847656-1.046875-1.363282-1.476563l-92.183593-93.953125c-.507813-.742187-1.136719-1.390625-1.859375-1.917969l-.238282-.230468c-1.503906-1.523438-3.558593-2.3789065-5.699218-2.371094h-214.980469c-22.773437 0-41.5625 15.835938-45.257813 36.589844-21.882812 3.410156-38.476562 21.554687-38.476562 43.398437v372.054688c0 24.265625 20.34375 43.957031 45.753906 43.957031zm262.246094-467.183594 66.671875 68.183594h-55.644531c-6.089844 0-11.027344-4.730469-11.027344-10.246094zm-224.265625-12.816406h208.265625v70.753906c0 14.335938 12.117188 26.246094 27.027344 26.246094h66.972656v303.011719c0 15.441406-13.164062 27.988281-29.753906 27.988281h-272.511719c-16.589844 0-29.734375-12.546875-29.734375-27.988281v-370.785157c0-.40625-.070312-.820312-.070312-1.242187-.03125-.347656-.085938-.695313-.164063-1.035156.585937-14.964844 13.75-26.949219 29.96875-26.949219zm-67.734375 63.988281c0-12.828125 9-23.660156 22-26.964843v362.988281c0 24.261719 20.324219 43.988281 45.734375 43.988281h263.367187c-3.703124 12-15.222656 20-28.835937 20h-272.511719c-16.585937 0-29.753906-12.515625-29.753906-27.957031zm0 0"/><path d="m95.792969 236h131.53125c4.417969 0 7.675781-3.984375 7.675781-8.398438v-16.402343c.0625-9.042969-3.484375-17.742188-9.855469-24.160157-6.371093-6.421874-15.042969-10.035156-24.085937-10.039062h-11.058594v-8.621094c11-8.664062 17-21.832031 17-36.554687v-30.824219h1.644531c2.109375.03125 4.140625-.78125 5.644531-2.261719 1.503907-1.476562 2.351563-3.492187 2.355469-5.601562-.035156-18.890625-15.378906-34.175781-34.273437-34.136719h-27.042969c-4.238281-.035156-8.386719 1.1875-11.929687 3.511719-17.640626 7.039062-29.265626 24.0625-29.398438 43.058593v26.253907c0 15.433593 8 29.164062 19 37.78125v7.394531h-10.9375c-9.054688 0-17.738281 3.609375-24.128906 10.023438-6.394532 6.414062-9.964844 15.113281-9.933594 24.167968v16.410156c0 4.414063 3.375 8.398438 7.792969 8.398438zm123.207031-24.808594v8.808594h-50v-17.507812l15.386719-9.492188h16.671875c4.800781 0 9.402344 1.925781 12.773437 5.34375 3.371094 3.417969 5.234375 8.046875 5.167969 12.847656zm-63.671875-136.191406h27.042969c6.9375-.070312 13.304687 3.808594 16.429687 10h-43.472656c-2.761719 0-5-2.238281-5-5s2.238281-5 5-5zm-14.328125 20.449219c-3.046875 2.246093-6.519531 3.851562-10.203125 4.722656.789063-4.332031 2.507813-8.445313 5.039063-12.054687 1.175781 2.785156 2.9375 5.285156 5.164062 7.332031zm-11 21.027343c8-.984374 18.820312-4.476562 28.359375-15.476562h32.640625v30.824219c0 16.914062-13.988281 31.207031-30.5 31.207031s-30.5-14.292969-30.5-31.207031zm30.730469 62.554688c4.5.019531 8.976562-.65625 13.269531-2v3.449219l-12.890625 8.082031-12.109375-7.96875v-3.117188c3.828125 1.019532 7.769531 1.542969 11.730469 1.554688zm-56.730469 32.160156c-.039062-4.8125 1.847656-9.445312 5.242188-12.859375 3.390624-3.417969 8.007812-5.335937 12.820312-5.332031h16.472656l14.464844 9.378906v17.621094h-49zm0 0"/><path d="m95.792969 284h131.53125c4.421875 0 8-3.582031 8-8s-3.578125-8-8-8h-131.53125c-4.417969 0-8 3.582031-8 8s3.582031 8 8 8zm0 0"/><path d="m95.792969 323h228.914062c4.417969 0 8-3.582031 8-8s-3.582031-8-8-8h-228.914062c-4.417969 0-8 3.582031-8 8s3.582031 8 8 8zm0 0"/><path d="m95.792969 362h228.914062c4.417969 0 8-3.582031 8-8s-3.582031-8-8-8h-228.914062c-4.417969 0-8 3.582031-8 8s3.582031 8 8 8zm0 0"/><path d="m95.792969 401h228.914062c4.417969 0 8-3.582031 8-8s-3.582031-8-8-8h-228.914062c-4.417969 0-8 3.582031-8 8s3.582031 8 8 8zm0 0"/></svg>