<svg id="flat" height="512" viewBox="0 0 128 128" width="512" xmlns="http://www.w3.org/2000/svg"><path d="m86.355 122.044v-45.338l-7.354-3.445-1.996-10.601h-26.01l-1.996 10.601-7.117 3.334v45.449z" fill="#e2b48a"/><path d="m116.96 127-1.9-24.286a22.457 22.457 0 0 0 -12.86-18.586l-20.41-9.562v5.906h-2.326v3.1h-34.239v-8.543l-19.425 9.099a22.457 22.457 0 0 0 -12.863 18.586l-1.897 24.286z" fill="#bac2d3"/><path d="m67.037 83.64h-9.776l-1.862 4.341 5.611 7.141-3.262 15.658 6.247 13.535 6.999-14.558-2.932-14.927 4.443-7.305z" fill="#da2a47"/><path d="m115.061 102.714a22.457 22.457 0 0 0 -12.861-18.586l-18.6-8.716c-1.517 8.638-5.119 16.554-9.033 24.35-1.815 3.616-3.516 7.219-5.117 10.927-.893 2.055-5.45 14.062-5.45 14.062s-7.388-18.39-8.733-21.876c-1.823-4.728-3.226-9.648-5.642-14.121-.414-.767-.851-1.521-1.3-2.27-4.11-1.614-6.223-5.1-6.145-10.031l-16.38 7.675a22.457 22.457 0 0 0 -12.863 18.586l-1.897 24.286h105.92z" fill="#707583"/><path d="m115.061 102.714a22.457 22.457 0 0 0 -12.861-18.586l-18.6-8.716c-1.517 8.638-5.119 16.554-9.033 24.35-1.815 3.616-3.516 7.219-5.117 10.927-.893 2.055-5.45 14.062-5.45 14.062s-7.388-18.39-8.733-21.876c-1.823-4.728-3.226-9.648-5.642-14.121-.414-.767-.851-1.521-1.3-2.27-4.11-1.614-6.223-5.1-6.145-10.031l-16.38 7.675a22.457 22.457 0 0 0 -12.863 18.586l-1.897 24.286h105.92z" fill="#384868"/><path d="m116.96 127h-14.34l-1.9-24.29a22.469 22.469 0 0 0 -12.87-18.58l-5.67-2.66a57.993 57.993 0 0 0 1.41-6.06l18.61 8.72a22.459 22.459 0 0 1 12.86 18.58z" fill="#2f3a5a"/><ellipse cx="87.731" cy="47.917" fill="#e2b48a" rx="8.43" ry="4.717" transform="matrix(.228 -.974 .974 .228 21.081 122.418)"/><ellipse cx="40.074" cy="47.917" fill="#e2b48a" rx="4.717" ry="8.43" transform="matrix(.974 -.228 .228 .974 -9.866 10.395)"/><ellipse cx="63.903" cy="38.898" fill="#f0c191" rx="23.829" ry="32.843"/><path d="m86.237 50.228s8.415-15.035 6.592-26.959-9.856-15.688-14.629-15.688c0 0-6.442-9.539-22.361-5.648s-22.32 21.372-19.308 32.4 5.02 16.094 5.02 16.094-2.008-14.1.251-21.885 9.037-13.932 11.673-11.8 19.454 1.425 22.215-3.3a17.018 17.018 0 0 1 6.753 11.086c.9 7.154 4.919 11.547 4.543 16.692s-.749 9.008-.749 9.008z" fill="#2f3a5a"/><path d="m78.315 69.583-14.315 13.988 12.778 8.781 5.98-17.351z" fill="#d9e2e9"/><path d="m45.242 75.001 6.478 16.946 12.28-8.376-14.315-13.988z" fill="#d9e2e9"/><path d="m86.484 76.766-8.169-7.183-.017-.017s-.149 21.46-14.3 54.749c-14.154-33.289-14.3-54.749-14.3-54.749l-.017.017-8.168 7.183-1.439 12.143 6.773-1.083-5.079 7.7c2.945 7.174 22.232 29.574 22.232 29.574 3.035-3.351 19.742-22.693 22.343-29.033l-5.195-8.241 7.581.216z" fill="#43567c"/></svg>